ISO-10303-21;
HEADER;
FILE_DESCRIPTION(('FreeCAD Model'),'2;1');
FILE_NAME('Open CASCADE Shape Model','2026-10-01T20:48:41',('Author'),(
    ''),'Open CASCADE STEP processor 7.8','FreeCAD','Unknown');
FILE_SCHEMA(('AUTOMOTIVE_DESIGN { 1 0 10303 214 1 1 1 1 }'));
ENDSEC;
DATA;
#1 = APPLICATION_PROTOCOL_DEFINITION('international standard',
  'automotive_design',2000,#2);
#2 = APPLICATION_CONTEXT(
  'core data for automotive mechanical design processes');
#3 = SHAPE_DEFINITION_REPRESENTATION(#4,#10);
#4 = PRODUCT_DEFINITION_SHAPE('','',#5);
#5 = PRODUCT_DEFINITION('design','',#6,#9);
#6 = PRODUCT_DEFINITION_FORMATION('','',#7);
#7 = PRODUCT('COMPOUND030','COMPOUND030','',(#8));
#8 = PRODUCT_CONTEXT('',#2,'mechanical');
#9 = PRODUCT_DEFINITION_CONTEXT('part definition',#2,'design');
#10 = ADVANCED_BREP_SHAPE_REPRESENTATION('',(#11,#15),#457);
#11 = AXIS2_PLACEMENT_3D('',#12,#13,#14);
#12 = CARTESIAN_POINT('',(0.,0.,0.));
#13 = DIRECTION('',(0.,0.,1.));
#14 = DIRECTION('',(1.,0.,-0.));
#15 = MANIFOLD_SOLID_BREP('',#16);
#16 = CLOSED_SHELL('',(#17,#50,#83,#116,#149,#189,#220,#251,#273,#313,
    #344,#375,#397,#427));
#17 = ADVANCED_FACE('',(#18),#45,.F.);
#18 = FACE_BOUND('',#19,.F.);
#19 = EDGE_LOOP('',(#20,#30,#37,#38));
#20 = ORIENTED_EDGE('',*,*,#21,.T.);
#21 = EDGE_CURVE('',#22,#24,#26,.T.);
#22 = VERTEX_POINT('',#23);
#23 = CARTESIAN_POINT('',(231.47219862107,127.71601185223,
    43.036724598906));
#24 = VERTEX_POINT('',#25);
#25 = CARTESIAN_POINT('',(231.47219862107,127.71601185223,
    40.036724598906));
#26 = LINE('',#27,#28);
#27 = CARTESIAN_POINT('',(231.47219862107,127.71601185223,60.));
#28 = VECTOR('',#29,1.);
#29 = DIRECTION('',(0.,0.,-1.));
#30 = ORIENTED_EDGE('',*,*,#31,.T.);
#31 = EDGE_CURVE('',#24,#24,#32,.T.);
#32 = CIRCLE('',#33,1.5);
#33 = AXIS2_PLACEMENT_3D('',#34,#35,#36);
#34 = CARTESIAN_POINT('',(232.97219862107,127.71601185223,
    40.036724598906));
#35 = DIRECTION('',(-1.239330485686E-16,0.,1.));
#36 = DIRECTION('',(1.,0.,1.239330485686E-16));
#37 = ORIENTED_EDGE('',*,*,#21,.F.);
#38 = ORIENTED_EDGE('',*,*,#39,.T.);
#39 = EDGE_CURVE('',#22,#22,#40,.T.);
#40 = CIRCLE('',#41,1.5);
#41 = AXIS2_PLACEMENT_3D('',#42,#43,#44);
#42 = CARTESIAN_POINT('',(232.97219862107,127.71601185223,
    43.036724598906));
#43 = DIRECTION('',(0.,0.,-1.));
#44 = DIRECTION('',(1.,0.,0.));
#45 = CYLINDRICAL_SURFACE('',#46,1.5);
#46 = AXIS2_PLACEMENT_3D('',#47,#48,#49);
#47 = CARTESIAN_POINT('',(232.97219862107,127.71601185223,60.));
#48 = DIRECTION('',(0.,0.,-1.));
#49 = DIRECTION('',(1.,0.,0.));
#50 = ADVANCED_FACE('',(#51),#78,.F.);
#51 = FACE_BOUND('',#52,.F.);
#52 = EDGE_LOOP('',(#53,#63,#70,#71));
#53 = ORIENTED_EDGE('',*,*,#54,.T.);
#54 = EDGE_CURVE('',#55,#57,#59,.T.);
#55 = VERTEX_POINT('',#56);
#56 = CARTESIAN_POINT('',(231.48140052082,21.996440164771,
    43.036724598906));
#57 = VERTEX_POINT('',#58);
#58 = CARTESIAN_POINT('',(231.48140052082,21.996440164771,
    40.036724598906));
#59 = LINE('',#60,#61);
#60 = CARTESIAN_POINT('',(231.48140052082,21.996440164771,60.));
#61 = VECTOR('',#62,1.);
#62 = DIRECTION('',(0.,0.,-1.));
#63 = ORIENTED_EDGE('',*,*,#64,.T.);
#64 = EDGE_CURVE('',#57,#57,#65,.T.);
#65 = CIRCLE('',#66,1.5);
#66 = AXIS2_PLACEMENT_3D('',#67,#68,#69);
#67 = CARTESIAN_POINT('',(232.98140052082,21.996440164771,
    40.036724598906));
#68 = DIRECTION('',(-1.239330485686E-16,0.,1.));
#69 = DIRECTION('',(1.,0.,1.239330485686E-16));
#70 = ORIENTED_EDGE('',*,*,#54,.F.);
#71 = ORIENTED_EDGE('',*,*,#72,.T.);
#72 = EDGE_CURVE('',#55,#55,#73,.T.);
#73 = CIRCLE('',#74,1.5);
#74 = AXIS2_PLACEMENT_3D('',#75,#76,#77);
#75 = CARTESIAN_POINT('',(232.98140052082,21.996440164771,
    43.036724598906));
#76 = DIRECTION('',(0.,0.,-1.));
#77 = DIRECTION('',(1.,0.,0.));
#78 = CYLINDRICAL_SURFACE('',#79,1.5);
#79 = AXIS2_PLACEMENT_3D('',#80,#81,#82);
#80 = CARTESIAN_POINT('',(232.98140052082,21.996440164771,60.));
#81 = DIRECTION('',(0.,0.,-1.));
#82 = DIRECTION('',(1.,0.,0.));
#83 = ADVANCED_FACE('',(#84),#111,.F.);
#84 = FACE_BOUND('',#85,.F.);
#85 = EDGE_LOOP('',(#86,#96,#103,#104));
#86 = ORIENTED_EDGE('',*,*,#87,.T.);
#87 = EDGE_CURVE('',#88,#90,#92,.T.);
#88 = VERTEX_POINT('',#89);
#89 = CARTESIAN_POINT('',(21.35671840157,127.74819309673,43.036724598906
    ));
#90 = VERTEX_POINT('',#91);
#91 = CARTESIAN_POINT('',(21.35671840157,127.74819309673,40.036724598906
    ));
#92 = LINE('',#93,#94);
#93 = CARTESIAN_POINT('',(21.35671840157,127.74819309673,60.));
#94 = VECTOR('',#95,1.);
#95 = DIRECTION('',(0.,0.,-1.));
#96 = ORIENTED_EDGE('',*,*,#97,.T.);
#97 = EDGE_CURVE('',#90,#90,#98,.T.);
#98 = CIRCLE('',#99,1.5);
#99 = AXIS2_PLACEMENT_3D('',#100,#101,#102);
#100 = CARTESIAN_POINT('',(22.85671840157,127.74819309673,
    40.036724598906));
#101 = DIRECTION('',(-1.239330485686E-16,0.,1.));
#102 = DIRECTION('',(1.,0.,1.239330485686E-16));
#103 = ORIENTED_EDGE('',*,*,#87,.F.);
#104 = ORIENTED_EDGE('',*,*,#105,.T.);
#105 = EDGE_CURVE('',#88,#88,#106,.T.);
#106 = CIRCLE('',#107,1.5);
#107 = AXIS2_PLACEMENT_3D('',#108,#109,#110);
#108 = CARTESIAN_POINT('',(22.85671840157,127.74819309673,
    43.036724598906));
#109 = DIRECTION('',(0.,0.,-1.));
#110 = DIRECTION('',(1.,0.,0.));
#111 = CYLINDRICAL_SURFACE('',#112,1.5);
#112 = AXIS2_PLACEMENT_3D('',#113,#114,#115);
#113 = CARTESIAN_POINT('',(22.85671840157,127.74819309673,60.));
#114 = DIRECTION('',(0.,0.,-1.));
#115 = DIRECTION('',(1.,0.,0.));
#116 = ADVANCED_FACE('',(#117),#144,.F.);
#117 = FACE_BOUND('',#118,.F.);
#118 = EDGE_LOOP('',(#119,#129,#136,#137));
#119 = ORIENTED_EDGE('',*,*,#120,.T.);
#120 = EDGE_CURVE('',#121,#123,#125,.T.);
#121 = VERTEX_POINT('',#122);
#122 = CARTESIAN_POINT('',(21.056524233494,22.119546240001,
    43.036724598906));
#123 = VERTEX_POINT('',#124);
#124 = CARTESIAN_POINT('',(21.056524233494,22.119546240001,
    40.036724598906));
#125 = LINE('',#126,#127);
#126 = CARTESIAN_POINT('',(21.056524233494,22.119546240001,60.));
#127 = VECTOR('',#128,1.);
#128 = DIRECTION('',(0.,0.,-1.));
#129 = ORIENTED_EDGE('',*,*,#130,.T.);
#130 = EDGE_CURVE('',#123,#123,#131,.T.);
#131 = CIRCLE('',#132,1.5);
#132 = AXIS2_PLACEMENT_3D('',#133,#134,#135);
#133 = CARTESIAN_POINT('',(22.556524233494,22.119546240001,
    40.036724598906));
#134 = DIRECTION('',(-1.239330485686E-16,0.,1.));
#135 = DIRECTION('',(1.,0.,1.239330485686E-16));
#136 = ORIENTED_EDGE('',*,*,#120,.F.);
#137 = ORIENTED_EDGE('',*,*,#138,.T.);
#138 = EDGE_CURVE('',#121,#121,#139,.T.);
#139 = CIRCLE('',#140,1.5);
#140 = AXIS2_PLACEMENT_3D('',#141,#142,#143);
#141 = CARTESIAN_POINT('',(22.556524233494,22.119546240001,
    43.036724598906));
#142 = DIRECTION('',(0.,0.,-1.));
#143 = DIRECTION('',(1.,0.,0.));
#144 = CYLINDRICAL_SURFACE('',#145,1.5);
#145 = AXIS2_PLACEMENT_3D('',#146,#147,#148);
#146 = CARTESIAN_POINT('',(22.556524233494,22.119546240001,60.));
#147 = DIRECTION('',(0.,0.,-1.));
#148 = DIRECTION('',(1.,0.,0.));
#149 = ADVANCED_FACE('',(#150),#184,.F.);
#150 = FACE_BOUND('',#151,.T.);
#151 = EDGE_LOOP('',(#152,#162,#170,#178));
#152 = ORIENTED_EDGE('',*,*,#153,.F.);
#153 = EDGE_CURVE('',#154,#156,#158,.T.);
#154 = VERTEX_POINT('',#155);
#155 = CARTESIAN_POINT('',(27.724131199656,35.602479882748,
    43.036724598906));
#156 = VERTEX_POINT('',#157);
#157 = CARTESIAN_POINT('',(27.724131199656,121.60247988274,
    43.036724598906));
#158 = LINE('',#159,#160);
#159 = CARTESIAN_POINT('',(27.724131199656,55.300362529271,
    43.036724598906));
#160 = VECTOR('',#161,1.);
#161 = DIRECTION('',(0.,1.,0.));
#162 = ORIENTED_EDGE('',*,*,#163,.T.);
#163 = EDGE_CURVE('',#154,#164,#166,.T.);
#164 = VERTEX_POINT('',#165);
#165 = CARTESIAN_POINT('',(27.724131199656,35.602479882748,
    40.036724598906));
#166 = LINE('',#167,#168);
#167 = CARTESIAN_POINT('',(27.724131199656,35.602479882748,80.));
#168 = VECTOR('',#169,1.);
#169 = DIRECTION('',(0.,0.,-1.));
#170 = ORIENTED_EDGE('',*,*,#171,.F.);
#171 = EDGE_CURVE('',#172,#164,#174,.T.);
#172 = VERTEX_POINT('',#173);
#173 = CARTESIAN_POINT('',(27.724131199656,121.60247988274,
    40.036724598906));
#174 = LINE('',#175,#176);
#175 = CARTESIAN_POINT('',(27.724131199656,55.300362529271,
    40.036724598906));
#176 = VECTOR('',#177,1.);
#177 = DIRECTION('',(0.,-1.,0.));
#178 = ORIENTED_EDGE('',*,*,#179,.F.);
#179 = EDGE_CURVE('',#156,#172,#180,.T.);
#180 = LINE('',#181,#182);
#181 = CARTESIAN_POINT('',(27.724131199656,121.60247988274,80.));
#182 = VECTOR('',#183,1.);
#183 = DIRECTION('',(0.,0.,-1.));
#184 = PLANE('',#185);
#185 = AXIS2_PLACEMENT_3D('',#186,#187,#188);
#186 = CARTESIAN_POINT('',(27.724131199656,35.602479882748,80.));
#187 = DIRECTION('',(-1.,0.,0.));
#188 = DIRECTION('',(0.,1.,0.));
#189 = ADVANCED_FACE('',(#190),#215,.F.);
#190 = FACE_BOUND('',#191,.T.);
#191 = EDGE_LOOP('',(#192,#200,#201,#209));
#192 = ORIENTED_EDGE('',*,*,#193,.F.);
#193 = EDGE_CURVE('',#156,#194,#196,.T.);
#194 = VERTEX_POINT('',#195);
#195 = CARTESIAN_POINT('',(181.72413119965,121.60247988274,
    43.036724598906));
#196 = LINE('',#197,#198);
#197 = CARTESIAN_POINT('',(77.611555543686,121.60247988274,
    43.036724598906));
#198 = VECTOR('',#199,1.);
#199 = DIRECTION('',(1.,0.,0.));
#200 = ORIENTED_EDGE('',*,*,#179,.T.);
#201 = ORIENTED_EDGE('',*,*,#202,.F.);
#202 = EDGE_CURVE('',#203,#172,#205,.T.);
#203 = VERTEX_POINT('',#204);
#204 = CARTESIAN_POINT('',(181.72413119965,121.60247988274,
    40.036724598906));
#205 = LINE('',#206,#207);
#206 = CARTESIAN_POINT('',(77.611555543686,121.60247988274,
    40.036724598906));
#207 = VECTOR('',#208,1.);
#208 = DIRECTION('',(-1.,0.,-1.239330485686E-16));
#209 = ORIENTED_EDGE('',*,*,#210,.F.);
#210 = EDGE_CURVE('',#194,#203,#211,.T.);
#211 = LINE('',#212,#213);
#212 = CARTESIAN_POINT('',(181.72413119965,121.60247988274,80.));
#213 = VECTOR('',#214,1.);
#214 = DIRECTION('',(0.,0.,-1.));
#215 = PLANE('',#216);
#216 = AXIS2_PLACEMENT_3D('',#217,#218,#219);
#217 = CARTESIAN_POINT('',(27.724131199656,121.60247988274,80.));
#218 = DIRECTION('',(0.,1.,0.));
#219 = DIRECTION('',(1.,0.,0.));
#220 = ADVANCED_FACE('',(#221),#246,.F.);
#221 = FACE_BOUND('',#222,.T.);
#222 = EDGE_LOOP('',(#223,#231,#232,#240));
#223 = ORIENTED_EDGE('',*,*,#224,.F.);
#224 = EDGE_CURVE('',#194,#225,#227,.T.);
#225 = VERTEX_POINT('',#226);
#226 = CARTESIAN_POINT('',(181.72413119965,35.602479882748,
    43.036724598906));
#227 = LINE('',#228,#229);
#228 = CARTESIAN_POINT('',(181.72413119965,98.300362529271,
    43.036724598906));
#229 = VECTOR('',#230,1.);
#230 = DIRECTION('',(0.,-1.,0.));
#231 = ORIENTED_EDGE('',*,*,#210,.T.);
#232 = ORIENTED_EDGE('',*,*,#233,.F.);
#233 = EDGE_CURVE('',#234,#203,#236,.T.);
#234 = VERTEX_POINT('',#235);
#235 = CARTESIAN_POINT('',(181.72413119965,35.602479882748,
    40.036724598906));
#236 = LINE('',#237,#238);
#237 = CARTESIAN_POINT('',(181.72413119965,98.300362529271,
    40.036724598906));
#238 = VECTOR('',#239,1.);
#239 = DIRECTION('',(0.,1.,0.));
#240 = ORIENTED_EDGE('',*,*,#241,.F.);
#241 = EDGE_CURVE('',#225,#234,#242,.T.);
#242 = LINE('',#243,#244);
#243 = CARTESIAN_POINT('',(181.72413119965,35.602479882748,80.));
#244 = VECTOR('',#245,1.);
#245 = DIRECTION('',(0.,0.,-1.));
#246 = PLANE('',#247);
#247 = AXIS2_PLACEMENT_3D('',#248,#249,#250);
#248 = CARTESIAN_POINT('',(181.72413119965,121.60247988274,80.));
#249 = DIRECTION('',(1.,0.,0.));
#250 = DIRECTION('',(0.,-1.,0.));
#251 = ADVANCED_FACE('',(#252),#268,.F.);
#252 = FACE_BOUND('',#253,.T.);
#253 = EDGE_LOOP('',(#254,#260,#261,#267));
#254 = ORIENTED_EDGE('',*,*,#255,.F.);
#255 = EDGE_CURVE('',#225,#154,#256,.T.);
#256 = LINE('',#257,#258);
#257 = CARTESIAN_POINT('',(154.61155554368,35.602479882748,
    43.036724598906));
#258 = VECTOR('',#259,1.);
#259 = DIRECTION('',(-1.,1.153478467143E-16,0.));
#260 = ORIENTED_EDGE('',*,*,#241,.T.);
#261 = ORIENTED_EDGE('',*,*,#262,.F.);
#262 = EDGE_CURVE('',#164,#234,#263,.T.);
#263 = LINE('',#264,#265);
#264 = CARTESIAN_POINT('',(154.61155554368,35.602479882748,
    40.036724598906));
#265 = VECTOR('',#266,1.);
#266 = DIRECTION('',(1.,-1.153478467143E-16,1.239330485686E-16));
#267 = ORIENTED_EDGE('',*,*,#163,.F.);
#268 = PLANE('',#269);
#269 = AXIS2_PLACEMENT_3D('',#270,#271,#272);
#270 = CARTESIAN_POINT('',(181.72413119965,35.602479882748,80.));
#271 = DIRECTION('',(-1.153478467143E-16,-1.,0.));
#272 = DIRECTION('',(-1.,1.153478467143E-16,0.));
#273 = ADVANCED_FACE('',(#274),#308,.T.);
#274 = FACE_BOUND('',#275,.T.);
#275 = EDGE_LOOP('',(#276,#286,#294,#302));
#276 = ORIENTED_EDGE('',*,*,#277,.T.);
#277 = EDGE_CURVE('',#278,#280,#282,.T.);
#278 = VERTEX_POINT('',#279);
#279 = CARTESIAN_POINT('',(20.,20.,40.036724598906));
#280 = VERTEX_POINT('',#281);
#281 = CARTESIAN_POINT('',(234.99795977543,20.,40.036724598906));
#282 = LINE('',#283,#284);
#283 = CARTESIAN_POINT('',(20.,20.,40.036724598906));
#284 = VECTOR('',#285,1.);
#285 = DIRECTION('',(1.,0.,0.));
#286 = ORIENTED_EDGE('',*,*,#287,.T.);
#287 = EDGE_CURVE('',#280,#288,#290,.T.);
#288 = VERTEX_POINT('',#289);
#289 = CARTESIAN_POINT('',(234.99795977543,20.,43.036724598906));
#290 = LINE('',#291,#292);
#291 = CARTESIAN_POINT('',(234.99795977543,20.,40.036724598906));
#292 = VECTOR('',#293,1.);
#293 = DIRECTION('',(0.,0.,1.));
#294 = ORIENTED_EDGE('',*,*,#295,.F.);
#295 = EDGE_CURVE('',#296,#288,#298,.T.);
#296 = VERTEX_POINT('',#297);
#297 = CARTESIAN_POINT('',(20.,20.,43.036724598906));
#298 = LINE('',#299,#300);
#299 = CARTESIAN_POINT('',(20.,20.,43.036724598906));
#300 = VECTOR('',#301,1.);
#301 = DIRECTION('',(1.,0.,0.));
#302 = ORIENTED_EDGE('',*,*,#303,.F.);
#303 = EDGE_CURVE('',#278,#296,#304,.T.);
#304 = LINE('',#305,#306);
#305 = CARTESIAN_POINT('',(20.,20.,40.036724598906));
#306 = VECTOR('',#307,1.);
#307 = DIRECTION('',(0.,0.,1.));
#308 = PLANE('',#309);
#309 = AXIS2_PLACEMENT_3D('',#310,#311,#312);
#310 = CARTESIAN_POINT('',(20.,20.,40.036724598906));
#311 = DIRECTION('',(0.,-1.,0.));
#312 = DIRECTION('',(1.,0.,0.));
#313 = ADVANCED_FACE('',(#314),#339,.T.);
#314 = FACE_BOUND('',#315,.T.);
#315 = EDGE_LOOP('',(#316,#324,#325,#333));
#316 = ORIENTED_EDGE('',*,*,#317,.T.);
#317 = EDGE_CURVE('',#318,#278,#320,.T.);
#318 = VERTEX_POINT('',#319);
#319 = CARTESIAN_POINT('',(20.,129.99649035158,40.036724598906));
#320 = LINE('',#321,#322);
#321 = CARTESIAN_POINT('',(20.,129.99649035158,40.036724598906));
#322 = VECTOR('',#323,1.);
#323 = DIRECTION('',(0.,-1.,0.));
#324 = ORIENTED_EDGE('',*,*,#303,.T.);
#325 = ORIENTED_EDGE('',*,*,#326,.F.);
#326 = EDGE_CURVE('',#327,#296,#329,.T.);
#327 = VERTEX_POINT('',#328);
#328 = CARTESIAN_POINT('',(20.,129.99649035158,43.036724598906));
#329 = LINE('',#330,#331);
#330 = CARTESIAN_POINT('',(20.,129.99649035158,43.036724598906));
#331 = VECTOR('',#332,1.);
#332 = DIRECTION('',(0.,-1.,0.));
#333 = ORIENTED_EDGE('',*,*,#334,.F.);
#334 = EDGE_CURVE('',#318,#327,#335,.T.);
#335 = LINE('',#336,#337);
#336 = CARTESIAN_POINT('',(20.,129.99649035158,40.036724598906));
#337 = VECTOR('',#338,1.);
#338 = DIRECTION('',(0.,0.,1.));
#339 = PLANE('',#340);
#340 = AXIS2_PLACEMENT_3D('',#341,#342,#343);
#341 = CARTESIAN_POINT('',(20.,129.99649035158,40.036724598906));
#342 = DIRECTION('',(-1.,0.,0.));
#343 = DIRECTION('',(0.,-1.,0.));
#344 = ADVANCED_FACE('',(#345),#370,.T.);
#345 = FACE_BOUND('',#346,.T.);
#346 = EDGE_LOOP('',(#347,#355,#356,#364));
#347 = ORIENTED_EDGE('',*,*,#348,.T.);
#348 = EDGE_CURVE('',#349,#318,#351,.T.);
#349 = VERTEX_POINT('',#350);
#350 = CARTESIAN_POINT('',(234.99795977543,129.99649035158,
    40.036724598906));
#351 = LINE('',#352,#353);
#352 = CARTESIAN_POINT('',(234.99795977543,129.99649035158,
    40.036724598906));
#353 = VECTOR('',#354,1.);
#354 = DIRECTION('',(-1.,0.,-1.239330485686E-16));
#355 = ORIENTED_EDGE('',*,*,#334,.T.);
#356 = ORIENTED_EDGE('',*,*,#357,.F.);
#357 = EDGE_CURVE('',#358,#327,#360,.T.);
#358 = VERTEX_POINT('',#359);
#359 = CARTESIAN_POINT('',(234.99795977543,129.99649035158,
    43.036724598906));
#360 = LINE('',#361,#362);
#361 = CARTESIAN_POINT('',(234.99795977543,129.99649035158,
    43.036724598906));
#362 = VECTOR('',#363,1.);
#363 = DIRECTION('',(-1.,0.,-1.239330485686E-16));
#364 = ORIENTED_EDGE('',*,*,#365,.F.);
#365 = EDGE_CURVE('',#349,#358,#366,.T.);
#366 = LINE('',#367,#368);
#367 = CARTESIAN_POINT('',(234.99795977543,129.99649035158,
    40.036724598906));
#368 = VECTOR('',#369,1.);
#369 = DIRECTION('',(0.,0.,1.));
#370 = PLANE('',#371);
#371 = AXIS2_PLACEMENT_3D('',#372,#373,#374);
#372 = CARTESIAN_POINT('',(234.99795977543,129.99649035158,
    40.036724598906));
#373 = DIRECTION('',(0.,1.,0.));
#374 = DIRECTION('',(-1.,0.,-1.239330485686E-16));
#375 = ADVANCED_FACE('',(#376),#392,.T.);
#376 = FACE_BOUND('',#377,.T.);
#377 = EDGE_LOOP('',(#378,#384,#385,#391));
#378 = ORIENTED_EDGE('',*,*,#379,.T.);
#379 = EDGE_CURVE('',#280,#349,#380,.T.);
#380 = LINE('',#381,#382);
#381 = CARTESIAN_POINT('',(234.99795977543,20.,40.036724598906));
#382 = VECTOR('',#383,1.);
#383 = DIRECTION('',(0.,1.,2.422382069267E-16));
#384 = ORIENTED_EDGE('',*,*,#365,.T.);
#385 = ORIENTED_EDGE('',*,*,#386,.F.);
#386 = EDGE_CURVE('',#288,#358,#387,.T.);
#387 = LINE('',#388,#389);
#388 = CARTESIAN_POINT('',(234.99795977543,20.,43.036724598906));
#389 = VECTOR('',#390,1.);
#390 = DIRECTION('',(0.,1.,2.422382069267E-16));
#391 = ORIENTED_EDGE('',*,*,#287,.F.);
#392 = PLANE('',#393);
#393 = AXIS2_PLACEMENT_3D('',#394,#395,#396);
#394 = CARTESIAN_POINT('',(234.99795977543,20.,40.036724598906));
#395 = DIRECTION('',(1.,0.,0.));
#396 = DIRECTION('',(-0.,1.,2.422382069267E-16));
#397 = ADVANCED_FACE('',(#398,#404,#410,#413,#416,#419),#422,.T.);
#398 = FACE_BOUND('',#399,.T.);
#399 = EDGE_LOOP('',(#400,#401,#402,#403));
#400 = ORIENTED_EDGE('',*,*,#386,.T.);
#401 = ORIENTED_EDGE('',*,*,#357,.T.);
#402 = ORIENTED_EDGE('',*,*,#326,.T.);
#403 = ORIENTED_EDGE('',*,*,#295,.T.);
#404 = FACE_BOUND('',#405,.T.);
#405 = EDGE_LOOP('',(#406,#407,#408,#409));
#406 = ORIENTED_EDGE('',*,*,#224,.T.);
#407 = ORIENTED_EDGE('',*,*,#255,.T.);
#408 = ORIENTED_EDGE('',*,*,#153,.T.);
#409 = ORIENTED_EDGE('',*,*,#193,.T.);
#410 = FACE_BOUND('',#411,.T.);
#411 = EDGE_LOOP('',(#412));
#412 = ORIENTED_EDGE('',*,*,#138,.T.);
#413 = FACE_BOUND('',#414,.T.);
#414 = EDGE_LOOP('',(#415));
#415 = ORIENTED_EDGE('',*,*,#105,.T.);
#416 = FACE_BOUND('',#417,.T.);
#417 = EDGE_LOOP('',(#418));
#418 = ORIENTED_EDGE('',*,*,#72,.T.);
#419 = FACE_BOUND('',#420,.T.);
#420 = EDGE_LOOP('',(#421));
#421 = ORIENTED_EDGE('',*,*,#39,.T.);
#422 = PLANE('',#423);
#423 = AXIS2_PLACEMENT_3D('',#424,#425,#426);
#424 = CARTESIAN_POINT('',(127.49897988771,74.998245175794,
    43.036724598906));
#425 = DIRECTION('',(0.,0.,1.));
#426 = DIRECTION('',(1.,0.,-0.));
#427 = ADVANCED_FACE('',(#428,#434,#440,#443,#446,#449),#452,.F.);
#428 = FACE_BOUND('',#429,.T.);
#429 = EDGE_LOOP('',(#430,#431,#432,#433));
#430 = ORIENTED_EDGE('',*,*,#379,.F.);
#431 = ORIENTED_EDGE('',*,*,#277,.F.);
#432 = ORIENTED_EDGE('',*,*,#317,.F.);
#433 = ORIENTED_EDGE('',*,*,#348,.F.);
#434 = FACE_BOUND('',#435,.T.);
#435 = EDGE_LOOP('',(#436,#437,#438,#439));
#436 = ORIENTED_EDGE('',*,*,#233,.T.);
#437 = ORIENTED_EDGE('',*,*,#202,.T.);
#438 = ORIENTED_EDGE('',*,*,#171,.T.);
#439 = ORIENTED_EDGE('',*,*,#262,.T.);
#440 = FACE_BOUND('',#441,.T.);
#441 = EDGE_LOOP('',(#442));
#442 = ORIENTED_EDGE('',*,*,#130,.T.);
#443 = FACE_BOUND('',#444,.T.);
#444 = EDGE_LOOP('',(#445));
#445 = ORIENTED_EDGE('',*,*,#97,.T.);
#446 = FACE_BOUND('',#447,.T.);
#447 = EDGE_LOOP('',(#448));
#448 = ORIENTED_EDGE('',*,*,#64,.T.);
#449 = FACE_BOUND('',#450,.T.);
#450 = EDGE_LOOP('',(#451));
#451 = ORIENTED_EDGE('',*,*,#31,.T.);
#452 = PLANE('',#453);
#453 = AXIS2_PLACEMENT_3D('',#454,#455,#456);
#454 = CARTESIAN_POINT('',(127.49897988771,74.998245175794,
    40.036724598906));
#455 = DIRECTION('',(-1.239330485686E-16,0.,1.));
#456 = DIRECTION('',(1.,0.,1.239330485686E-16));
#457 = ( GEOMETRIC_REPRESENTATION_CONTEXT(3) 
GLOBAL_UNCERTAINTY_ASSIGNED_CONTEXT((#461)) GLOBAL_UNIT_ASSIGNED_CONTEXT
((#458,#459,#460)) REPRESENTATION_CONTEXT('Context #1',
  '3D Context with UNIT and UNCERTAINTY') );
#458 = ( LENGTH_UNIT() NAMED_UNIT(*) SI_UNIT(.MILLI.,.METRE.) );
#459 = ( NAMED_UNIT(*) PLANE_ANGLE_UNIT() SI_UNIT($,.RADIAN.) );
#460 = ( NAMED_UNIT(*) SI_UNIT($,.STERADIAN.) SOLID_ANGLE_UNIT() );
#461 = UNCERTAINTY_MEASURE_WITH_UNIT(LENGTH_MEASURE(1.E-07),#458,
  'distance_accuracy_value','confusion accuracy');
#462 = PRODUCT_RELATED_PRODUCT_CATEGORY('part',$,(#7));
#463 = MECHANICAL_DESIGN_GEOMETRIC_PRESENTATION_REPRESENTATION('',(#464)
  ,#457);
#464 = STYLED_ITEM('color',(#465),#15);
#465 = PRESENTATION_STYLE_ASSIGNMENT((#466,#472));
#466 = SURFACE_STYLE_USAGE(.BOTH.,#467);
#467 = SURFACE_SIDE_STYLE('',(#468));
#468 = SURFACE_STYLE_FILL_AREA(#469);
#469 = FILL_AREA_STYLE('',(#470));
#470 = FILL_AREA_STYLE_COLOUR('',#471);
#471 = COLOUR_RGB('',0.627451011593,0.627451011593,0.627451011593);
#472 = CURVE_STYLE('',#473,POSITIVE_LENGTH_MEASURE(0.1),#474);
#473 = DRAUGHTING_PRE_DEFINED_CURVE_FONT('continuous');
#474 = COLOUR_RGB('',9.803921802644E-02,9.803921802644E-02,
  9.803921802644E-02);
ENDSEC;
END-ISO-10303-21;
